<svg id="Layer_1" data-name="Layer 1" xmlns="http://www.w3.org/2000/svg" viewBox="0 0 864 746.6106">
  <g>
    <circle id="logoMark" cx="93.1682" cy="71.6862" r="71.6876" transform="translate(-1.5358 2.0415) rotate(-1.2452)" style="fill: #d3a93d"/>
    <path id="fullLogo" d="M750.7881,502.039c-70.3977,0-116.8441-49.35-116.8441-122.6477,0-68.9457,35.5629-113.9359,89.993-113.9359a388.5567,388.5567,0,0,1,39.9146,2.1759v71.8455h93.6167V207.3932C822.6334,192.1581,770.3834,181.27,723.937,181.27c-84.4808,0-148.1845,44.0766-176.3373,114.9008-4.4341-18.2381-13.6226-35.3561-28.04-51.7631l47.17-47.1745L499.9647,130.468l-62.4139,61.69a218.8321,218.8321,0,0,0-69.67-10.8877c-103.7762,0-174.1739,58.0578-174.1739,140.7912,0,32.6589,11.6116,60.9576,34.1109,84.9089-29.0311,23.9513-47.1745,56.6058-47.1745,87.8129,0,1.4907.1729,2.8954.2408,4.3517H150.2226V188.526H0v80.5573H51.5262V499.1351H0v80.5572H187.8848c-13.8035,14.7094-21.7524,32.4608-21.7524,51.5262,0,68.2176,79.8293,115.3921,198.121,115.3921,129.9034,0,216.2686-55.1582,216.2686-137.8914,0-68.9415-49.35-113.9358-124.8278-113.9358H300.3918c-18.1434,0-31.207-10.16-31.207-26.851,0-9.4358,4.3517-18.1478,13.7875-26.1271q38.0985,15.2394,89.2649,15.2393c74.2183,0,131.4965-26.39,159.5328-69.5489,1.598,119.0975,77.9894,199.4565,192.167,199.4565,51.5263,0,107.4041-11.6158,140.063-29.031V477.3681C832.793,492.6033,789.2507,502.039,750.7881,502.039ZM303.2915,574.6125h131.36c26.1229,0,44.2663,15.24,44.2663,38.4627,0,34.1107-44.9945,56.6058-109.5842,56.6058-66.7656,0-110.308-22.4951-110.308-56.6058C259.0252,589.852,276.4405,574.6125,303.2915,574.6125ZM372.2372,391.731c-45.7226,0-76.9252-28.3073-76.9252-69.6694,0-41.3667,31.2026-69.67,76.9252-69.67s76.2014,28.3029,76.2014,69.67C448.4386,363.4237,417.96,391.731,372.2372,391.731Z" style="fill: #222f44"/>
  </g>
</svg>
